<mxfile host="app.diagrams.net" modified="2020-12-16T21:59:00.930Z" agent="5.0 (Windows NT 10.0; Win64; x64) AppleWebKit/537.36 (KHTML, like Gecko) Chrome/87.0.4280.88 Safari/537.36" etag="sZBFPvOfWbfIPFvUPpWf" version="14.0.1" type="github">
  <diagram id="EMzFrb8eTuvNqW4kltmI" name="Page-1">
    <mxGraphModel dx="782" dy="553" grid="1" gridSize="10" guides="1" tooltips="1" connect="1" arrows="1" fold="1" page="1" pageScale="1" pageWidth="827" pageHeight="1169" math="0" shadow="0">
      <root>
        <mxCell id="0" />
        <mxCell id="1" parent="0" />
        <mxCell id="9R0fchmYpR74KwxauNqT-1" value="data" style="swimlane;fontStyle=0;childLayout=stackLayout;horizontal=1;startSize=26;fillColor=none;horizontalStack=0;resizeParent=1;resizeParentMax=0;resizeLast=0;collapsible=1;marginBottom=0;" vertex="1" parent="1">
          <mxGeometry x="330" y="40" width="190" height="270" as="geometry" />
        </mxCell>
        <mxCell id="9R0fchmYpR74KwxauNqT-2" value="+ id: INT(11)" style="text;strokeColor=none;fillColor=none;align=left;verticalAlign=top;spacingLeft=4;spacingRight=4;overflow=hidden;rotatable=0;points=[[0,0.5],[1,0.5]];portConstraint=eastwest;" vertex="1" parent="9R0fchmYpR74KwxauNqT-1">
          <mxGeometry y="26" width="190" height="26" as="geometry" />
        </mxCell>
        <mxCell id="9R0fchmYpR74KwxauNqT-3" value="+ date: DATETIME" style="text;strokeColor=none;fillColor=none;align=left;verticalAlign=top;spacingLeft=4;spacingRight=4;overflow=hidden;rotatable=0;points=[[0,0.5],[1,0.5]];portConstraint=eastwest;" vertex="1" parent="9R0fchmYpR74KwxauNqT-1">
          <mxGeometry y="52" width="190" height="26" as="geometry" />
        </mxCell>
        <mxCell id="9R0fchmYpR74KwxauNqT-4" value="+ tmp_position: Double&#xa;&#xa;+ altitude: Double&#xa;&#xa;+ longitude: Double&#xa;&#xa;+ device_localisation_id: INT(11)&#xa;&#xa;+ status_antenne: VARCHAR(200)&#xa;&#xa;+ name_antenne: VARCHAR(200)&#xa;&#xa;+ name_baise: VARCHAR(200)" style="text;strokeColor=none;fillColor=none;align=left;verticalAlign=top;spacingLeft=4;spacingRight=4;overflow=hidden;rotatable=0;points=[[0,0.5],[1,0.5]];portConstraint=eastwest;" vertex="1" parent="9R0fchmYpR74KwxauNqT-1">
          <mxGeometry y="78" width="190" height="192" as="geometry" />
        </mxCell>
        <mxCell id="9R0fchmYpR74KwxauNqT-5" value="user" style="swimlane;fontStyle=0;childLayout=stackLayout;horizontal=1;startSize=26;fillColor=none;horizontalStack=0;resizeParent=1;resizeParentMax=0;resizeLast=0;collapsible=1;marginBottom=0;" vertex="1" parent="1">
          <mxGeometry x="60" y="123" width="170" height="170" as="geometry" />
        </mxCell>
        <mxCell id="9R0fchmYpR74KwxauNqT-6" value="+ id_user: INT(11)" style="text;strokeColor=none;fillColor=none;align=left;verticalAlign=top;spacingLeft=4;spacingRight=4;overflow=hidden;rotatable=0;points=[[0,0.5],[1,0.5]];portConstraint=eastwest;" vertex="1" parent="9R0fchmYpR74KwxauNqT-5">
          <mxGeometry y="26" width="170" height="26" as="geometry" />
        </mxCell>
        <mxCell id="9R0fchmYpR74KwxauNqT-7" value="+ mail: VARCHAR(200)" style="text;strokeColor=none;fillColor=none;align=left;verticalAlign=top;spacingLeft=4;spacingRight=4;overflow=hidden;rotatable=0;points=[[0,0.5],[1,0.5]];portConstraint=eastwest;" vertex="1" parent="9R0fchmYpR74KwxauNqT-5">
          <mxGeometry y="52" width="170" height="26" as="geometry" />
        </mxCell>
        <mxCell id="9R0fchmYpR74KwxauNqT-8" value="+ mdp: VARCHAR(200)&#xa;&#xa;+ nom: VARCHAR(200)&#xa;&#xa;+ prenom: VARCHAR(200)&#xa;&#xa;" style="text;strokeColor=none;fillColor=none;align=left;verticalAlign=top;spacingLeft=4;spacingRight=4;overflow=hidden;rotatable=0;points=[[0,0.5],[1,0.5]];portConstraint=eastwest;" vertex="1" parent="9R0fchmYpR74KwxauNqT-5">
          <mxGeometry y="78" width="170" height="92" as="geometry" />
        </mxCell>
        <mxCell id="9R0fchmYpR74KwxauNqT-9" value="balise_UWB" style="swimlane;fontStyle=0;childLayout=stackLayout;horizontal=1;startSize=26;fillColor=none;horizontalStack=0;resizeParent=1;resizeParentMax=0;resizeLast=0;collapsible=1;marginBottom=0;" vertex="1" parent="1">
          <mxGeometry x="630" y="123" width="140" height="104" as="geometry" />
        </mxCell>
        <mxCell id="9R0fchmYpR74KwxauNqT-10" value="+ id: INT(11)" style="text;strokeColor=none;fillColor=none;align=left;verticalAlign=top;spacingLeft=4;spacingRight=4;overflow=hidden;rotatable=0;points=[[0,0.5],[1,0.5]];portConstraint=eastwest;" vertex="1" parent="9R0fchmYpR74KwxauNqT-9">
          <mxGeometry y="26" width="140" height="26" as="geometry" />
        </mxCell>
        <mxCell id="9R0fchmYpR74KwxauNqT-11" value="+ cle: VARCHAR(200)" style="text;strokeColor=none;fillColor=none;align=left;verticalAlign=top;spacingLeft=4;spacingRight=4;overflow=hidden;rotatable=0;points=[[0,0.5],[1,0.5]];portConstraint=eastwest;" vertex="1" parent="9R0fchmYpR74KwxauNqT-9">
          <mxGeometry y="52" width="140" height="26" as="geometry" />
        </mxCell>
        <mxCell id="9R0fchmYpR74KwxauNqT-12" value="+ name: VARCHAR(200)" style="text;strokeColor=none;fillColor=none;align=left;verticalAlign=top;spacingLeft=4;spacingRight=4;overflow=hidden;rotatable=0;points=[[0,0.5],[1,0.5]];portConstraint=eastwest;" vertex="1" parent="9R0fchmYpR74KwxauNqT-9">
          <mxGeometry y="78" width="140" height="26" as="geometry" />
        </mxCell>
        <mxCell id="9R0fchmYpR74KwxauNqT-13" value="" style="endArrow=none;html=1;entryX=-0.007;entryY=0.226;entryDx=0;entryDy=0;entryPerimeter=0;exitX=1.016;exitY=0.283;exitDx=0;exitDy=0;exitPerimeter=0;" edge="1" parent="1" source="9R0fchmYpR74KwxauNqT-8" target="9R0fchmYpR74KwxauNqT-4">
          <mxGeometry width="50" height="50" relative="1" as="geometry">
            <mxPoint x="230" y="200" as="sourcePoint" />
            <mxPoint x="320" y="164" as="targetPoint" />
          </mxGeometry>
        </mxCell>
        <mxCell id="9R0fchmYpR74KwxauNqT-14" value="" style="endArrow=none;html=1;entryX=0;entryY=0.5;entryDx=0;entryDy=0;" edge="1" parent="1" target="9R0fchmYpR74KwxauNqT-11">
          <mxGeometry width="50" height="50" relative="1" as="geometry">
            <mxPoint x="520" y="160" as="sourcePoint" />
            <mxPoint x="570" y="110" as="targetPoint" />
          </mxGeometry>
        </mxCell>
      </root>
    </mxGraphModel>
  </diagram>
</mxfile>
